<?xml version="1.0" standalone="no"?>
<!DOCTYPE svg PUBLIC "-//W3C//DTD SVG 20010904//EN"
 "http://www.w3.org/TR/2001/REC-SVG-20010904/DTD/svg10.dtd">
<svg version="1.0" xmlns="http://www.w3.org/2000/svg"
 width="60.000000pt" height="40.000000pt" viewBox="0 0 60.000000 40.000000"
 preserveAspectRatio="xMidYMid meet">

<g transform="translate(0.000000,40.000000) scale(0.100000,-0.100000)"
fill="#000000" stroke="none">
<path d="M0 325 c0 -41 2 -75 5 -75 2 0 14 18 25 40 11 22 39 54 62 70 36 26
50 30 107 30 53 0 74 -5 106 -25 42 -25 128 -35 140 -15 10 16 42 12 49 -6 10
-25 -22 -53 -66 -61 -32 -5 -38 -9 -36 -26 3 -19 9 -20 68 -18 50 1 72 -3 98
-19 61 -38 31 -74 -39 -46 -62 25 -115 11 -131 -34 -5 -12 3 -16 34 -17 48 -2
88 -26 88 -54 0 -27 -21 -33 -56 -14 -41 21 -56 19 -134 -15 -130 -57 -230
-32 -290 73 l-30 52 0 -82 0 -83 300 0 300 0 0 200 0 200 -300 0 -300 0 0 -75z"/>
<path d="M129 317 c-47 -31 -71 -82 -64 -132 18 -120 155 -163 239 -76 37 38
47 112 22 160 -36 69 -131 92 -197 48z m121 -86 l0 -60 33 -3 c20 -2 32 -8 32
-18 0 -11 -12 -15 -45 -15 l-45 0 -3 63 -3 62 -34 0 c-24 0 -35 -5 -35 -15 0
-9 9 -15 25 -15 16 0 25 -6 25 -15 0 -9 -9 -15 -24 -15 -21 0 -25 -6 -28 -32
-6 -62 -23 -33 -26 45 l-3 77 66 0 65 0 0 -59z"/>
</g>
</svg>
