<?xml version="1.0" standalone="no"?>
<!DOCTYPE svg PUBLIC "-//W3C//DTD SVG 20010904//EN"
 "http://www.w3.org/TR/2001/REC-SVG-20010904/DTD/svg10.dtd">
<svg version="1.0" xmlns="http://www.w3.org/2000/svg"
 width="200.000000pt" height="200.000000pt" viewBox="0 0 200.000000 200.000000"
 preserveAspectRatio="xMidYMid meet">

<g transform="translate(0.000000,200.000000) scale(0.100000,-0.100000)"
fill="#000000" stroke="none">
<path d="M0 1000 l0 -1000 1000 0 1000 0 0 1000 0 1000 -1000 0 -1000 0 0
-1000z m1191 768 c96 -35 156 -73 224 -142 63 -65 122 -166 146 -251 8 -30 14
-95 13 -160 0 -122 -19 -193 -73 -282 -17 -26 -42 -67 -56 -89 -62 -100 -64
-262 -6 -356 52 -83 37 -133 -41 -133 -74 0 -122 86 -137 247 -3 42 -10 80
-13 84 -4 4 -44 -4 -88 -17 -72 -20 -81 -25 -76 -44 24 -85 38 -198 32 -256
-17 -188 -99 -305 -188 -268 -40 16 -47 54 -19 99 57 91 66 121 66 215 0 65
-7 110 -23 162 l-22 71 -69 21 c-103 31 -98 36 -104 -81 -6 -127 -28 -201 -72
-245 -37 -37 -76 -43 -113 -17 -30 21 -28 50 8 120 69 135 61 223 -40 434 -85
179 -104 252 -96 375 6 102 22 161 66 244 78 146 225 254 395 291 70 16 213 4
286 -22z"/>
<path d="M877 1639 c-117 -40 -202 -115 -258 -227 -33 -65 -34 -71 -34 -187 0
-117 1 -122 34 -190 163 -330 619 -330 782 0 33 68 34 73 34 190 0 115 -1 123
-33 187 -97 196 -327 296 -525 227z m221 -191 c9 -8 12 -58 12 -189 l0 -178
98 -3 c96 -3 97 -3 97 -28 l0 -25 -124 -3 c-93 -2 -126 1 -133 10 -4 7 -8 93
-8 192 0 158 -2 177 -16 172 -9 -3 -56 -6 -105 -6 l-89 0 0 -60 0 -60 75 0
c65 0 76 -3 85 -21 20 -36 -3 -49 -86 -49 l-74 0 0 -77 c0 -89 -7 -106 -41
-101 l-24 3 -3 205 c-1 112 0 210 3 218 6 16 313 16 333 0z"/>
</g>
</svg>
